<svg width="522" height="400" viewBox="0 0 522 400" fill="none" xmlns="http://www.w3.org/2000/svg">
<path d="M271.299 340.115C345.645 340.115 405.914 279.846 405.914 205.5C405.914 131.154 345.645 70.8855 271.299 70.8855C196.954 70.8855 136.685 131.154 136.685 205.5C136.685 279.846 196.954 340.115 271.299 340.115Z" fill="currentColor"/>
<path d="M453.211 177.327V162.789C453.211 160.017 452.109 157.359 450.149 155.399C448.189 153.438 445.53 152.337 442.758 152.337H405.865C403.093 152.337 400.435 151.236 398.474 149.276C396.514 147.316 395.413 144.657 395.413 141.885V127.348C395.413 124.575 396.514 121.917 398.474 119.957C400.435 117.996 403.093 116.895 405.865 116.895H407.03C409.802 116.895 412.461 115.794 414.421 113.834C416.381 111.874 417.482 109.215 417.482 106.443V91.9057C417.482 89.1335 416.381 86.475 414.421 84.5148C412.461 82.5546 409.802 81.4534 407.03 81.4534H138.982C136.21 81.4534 133.551 82.5546 131.591 84.5148C129.631 86.475 128.529 89.1335 128.529 91.9057V106.443C128.529 109.215 129.631 111.874 131.591 113.834C133.551 115.794 136.21 116.895 138.982 116.895C141.754 116.895 144.412 117.996 146.373 119.957C148.333 121.917 149.434 124.575 149.434 127.348V141.885C149.434 144.657 148.333 147.316 146.373 149.276C144.412 151.236 141.754 152.337 138.982 152.337H98.5617C95.7896 152.337 93.131 153.438 91.1708 155.399C89.2106 157.359 88.1094 160.017 88.1094 162.789V177.327C88.1094 180.099 89.2106 182.757 91.1708 184.718C93.131 186.678 95.7896 187.779 98.5617 187.779H114.422C115.795 187.779 117.154 188.049 118.422 188.575C119.69 189.1 120.842 189.87 121.813 190.84C122.783 191.811 123.553 192.963 124.079 194.231C124.604 195.499 124.874 196.859 124.874 198.231V212.769C124.874 215.541 123.773 218.199 121.813 220.159C119.853 222.12 117.194 223.221 114.422 223.221H114.384C111.611 223.221 108.953 224.322 106.993 226.282C105.033 228.242 103.931 230.901 103.931 233.673V248.21C103.931 250.983 105.033 253.641 106.993 255.601C108.953 257.561 111.611 258.663 114.384 258.663H116.678C118.051 258.663 119.41 258.933 120.678 259.458C121.946 259.984 123.099 260.754 124.069 261.724C125.04 262.695 125.81 263.847 126.335 265.115C126.86 266.383 127.131 267.742 127.131 269.115V283.652C127.131 286.424 126.029 289.083 124.069 291.043C122.109 293.003 119.45 294.105 116.678 294.105H79.0192C76.2471 294.105 73.5885 295.206 71.6283 297.166C69.6681 299.126 68.5669 301.785 68.5669 304.557V319.094C68.5669 321.866 69.6681 324.525 71.6283 326.485C73.5885 328.445 76.2471 329.546 79.0192 329.546H412.642C415.414 329.546 418.072 328.445 420.033 326.485C421.993 324.525 423.094 321.866 423.094 319.094V304.557C423.094 301.785 421.993 299.126 420.033 297.166C418.072 295.206 415.414 294.105 412.642 294.105H403.579C400.807 294.105 398.148 293.003 396.188 291.043C394.228 289.083 393.127 286.424 393.127 283.652V269.115C393.127 266.343 394.228 263.684 396.188 261.724C398.148 259.764 400.807 258.663 403.579 258.663H424.948C427.72 258.663 430.379 257.562 432.339 255.601C434.299 253.641 435.4 250.983 435.4 248.21V233.673C435.4 230.901 434.299 228.242 432.339 226.282C430.379 224.322 427.72 223.221 424.948 223.221H418.466C415.693 223.221 413.035 222.12 411.075 220.159C409.114 218.199 408.013 215.541 408.013 212.769V198.231C408.013 195.459 409.114 192.801 411.075 190.84C413.035 188.88 415.693 187.779 418.466 187.779H442.758C445.53 187.779 448.189 186.678 450.149 184.718C452.109 182.757 453.211 180.099 453.211 177.327Z" fill="currentColor"/>
<path d="M388.494 234.046L300.827 281.268V174.152L388.494 146.784V234.046Z" fill="#FDAB59"/>
<path d="M300.827 174.153L197.338 163.683L176.128 132.392C175.883 132.03 175.741 131.608 175.717 131.171C175.694 130.734 175.789 130.299 175.994 129.913C176.199 129.526 176.506 129.203 176.88 128.977C177.255 128.752 177.684 128.633 178.122 128.633H275.61C276.05 128.633 276.482 128.753 276.858 128.981C277.234 129.209 277.541 129.536 277.745 129.927L300.827 174.153Z" fill="#FD9935"/>
<path d="M197.338 270.799L161.196 263.279C160.654 263.166 160.167 262.87 159.818 262.441C159.469 262.012 159.278 261.475 159.278 260.921V158.725C159.278 158.367 159.358 158.014 159.512 157.69C159.665 157.367 159.889 157.082 160.167 156.857C160.444 156.631 160.769 156.47 161.117 156.385C161.464 156.3 161.826 156.294 162.177 156.367L197.338 163.683V270.799ZM335.718 292.885L300.827 281.269V174.153L337.24 186.275C337.719 186.435 338.137 186.741 338.432 187.151C338.728 187.561 338.887 188.054 338.887 188.56V290.6C338.887 290.981 338.797 291.357 338.623 291.697C338.449 292.036 338.197 292.33 337.888 292.553C337.578 292.776 337.22 292.923 336.843 292.98C336.466 293.038 336.08 293.005 335.718 292.885Z" fill="#FD9935"/>
<path d="M300.827 281.268L197.338 270.799V163.683L300.827 174.152V281.268Z" fill="#FDA145"/>
<path d="M274.511 309.929L168.917 305.715L197.338 270.8L300.827 281.269L276.418 309.11C276.181 309.38 275.887 309.594 275.557 309.735C275.227 309.877 274.87 309.943 274.511 309.929V309.929Z" fill="#FD9935"/>
<path d="M300.827 174.153L388.494 146.784L281.337 136.809L300.827 174.153Z" fill="#FDA145"/>
<path d="M197.338 270.799L300.827 222.476V174.152L197.338 163.683V270.799Z" fill="#FC9126"/>
<path d="M203.543 235.894C203.543 235.894 214.849 230.947 217.853 234.481C220.856 238.014 227.569 239.604 227.569 239.604L233.399 229.711L249.298 237.13L257.955 248.967L252.301 262.923C252.301 262.923 240.819 262.746 235.342 265.043C229.866 267.339 215.556 267.516 215.556 267.516L209.02 254.973C209.02 254.973 200.717 242.784 203.543 235.894Z" fill="#DBE8EC"/>
<path d="M227.569 239.604C228.656 240.567 229.701 241.566 230.724 242.583C231.757 243.592 232.75 244.634 233.748 245.673C234.724 246.729 235.726 247.764 236.672 248.845C237.627 249.919 238.599 250.979 239.522 252.08L237.487 253.086C237.025 251.166 236.57 249.244 236.161 247.311C235.744 245.38 235.388 243.436 235.014 241.495C234.334 237.599 233.699 233.693 233.399 229.711C234.841 233.435 235.949 237.234 237.011 241.044C237.508 242.956 238.023 244.865 238.477 246.787C238.94 248.708 239.355 250.639 239.765 252.571L239.769 252.588C239.823 252.843 239.79 253.109 239.675 253.343C239.561 253.577 239.371 253.766 239.136 253.88C238.902 253.994 238.636 254.026 238.381 253.971C238.126 253.917 237.897 253.778 237.73 253.578C236.81 252.475 235.939 251.33 235.051 250.2C234.155 249.077 233.314 247.908 232.447 246.76C231.602 245.594 230.753 244.432 229.942 243.237C229.123 242.049 228.324 240.845 227.569 239.604Z" fill="#BAD5DB"/>
<path d="M249.298 237.13C248.624 238.585 247.865 239.982 247.109 241.38C246.333 242.766 245.552 244.147 244.728 245.5C243.927 246.869 243.066 248.196 242.226 249.538C241.38 250.875 240.486 252.18 239.618 253.503L238.391 251.653C240 251.323 241.615 251.023 243.233 250.736C244.857 250.482 246.472 250.18 248.104 249.966C249.731 249.724 251.367 249.528 253.005 249.343C254.649 249.188 256.29 249.02 257.955 248.967C256.398 249.557 254.818 250.033 253.24 250.521C251.657 250.981 250.071 251.427 248.477 251.83C246.887 252.259 245.281 252.601 243.684 252.991C242.08 253.347 240.473 253.691 238.861 254.005L238.836 254.01C238.603 254.055 238.361 254.029 238.142 253.936C237.924 253.843 237.738 253.687 237.609 253.488C237.479 253.288 237.413 253.055 237.417 252.817C237.422 252.58 237.498 252.349 237.634 252.154C238.545 250.861 239.43 249.549 240.362 248.27C241.301 246.996 242.218 245.707 243.197 244.459C244.151 243.195 245.149 241.961 246.152 240.73C247.174 239.512 248.194 238.292 249.298 237.13Z" fill="#BAD5DB"/>
<path d="M252.302 262.923C250.997 262.305 249.764 261.591 248.523 260.887C247.298 260.161 246.085 259.42 244.895 258.646C242.503 257.118 240.187 255.485 237.913 253.795L239.652 253.451C238.278 255.69 236.854 257.9 235.326 260.046C234.579 261.129 233.785 262.184 232.988 263.237C232.172 264.279 231.355 265.32 230.456 266.311C230.918 265.055 231.463 263.849 232.009 262.644C232.573 261.45 233.141 260.258 233.755 259.094C234.951 256.746 236.25 254.461 237.6 252.207C237.68 252.072 237.786 251.955 237.912 251.861C238.038 251.768 238.181 251.7 238.333 251.662C238.486 251.624 238.644 251.616 238.799 251.639C238.954 251.662 239.103 251.715 239.238 251.796L239.329 251.856L239.339 251.863C241.624 253.538 243.867 255.27 246.032 257.106C247.122 258.014 248.188 258.956 249.242 259.912C250.281 260.89 251.327 261.859 252.302 262.923Z" fill="#BAD5DB"/>
<path d="M203.543 235.894C209.646 238.186 215.6 240.789 221.531 243.436C224.483 244.789 227.442 246.127 230.367 247.535C233.307 248.911 236.221 250.344 239.133 251.779L239.141 251.784C239.327 251.875 239.485 252.014 239.599 252.187C239.712 252.359 239.778 252.559 239.79 252.766C239.801 252.972 239.757 253.178 239.662 253.362C239.568 253.545 239.426 253.701 239.252 253.812C237.329 255.035 235.366 256.196 233.423 257.387C231.483 258.584 229.501 259.715 227.543 260.882C225.565 262.019 223.596 263.169 221.594 264.269C219.602 265.384 217.59 266.466 215.556 267.516C217.366 266.115 219.198 264.749 221.053 263.419C222.897 262.072 224.772 260.774 226.639 259.463C228.526 258.182 230.389 256.865 232.294 255.614C234.196 254.358 236.078 253.07 238 251.846L238.119 253.878C235.184 252.491 232.25 251.101 229.344 249.655C226.422 248.241 223.533 246.756 220.638 245.286C214.875 242.289 209.134 239.247 203.543 235.894Z" fill="#BAD5DB"/>
<path d="M208.298 253.845C210.362 253.065 212.346 252.091 214.225 250.935C215.975 249.903 217.432 248.442 218.458 246.689C219.348 244.895 219.668 242.872 219.376 240.891C219.076 238.71 218.566 236.563 217.853 234.48C219.439 236.205 220.598 238.278 221.235 240.533C221.964 242.957 221.73 245.568 220.582 247.823C219.344 249.985 217.415 251.669 215.106 252.604C212.963 253.537 210.633 253.962 208.298 253.845V253.845ZM226.354 246.905C226.223 248.551 225.94 250.181 225.507 251.775C225.096 253.343 224.6 254.888 224.023 256.402C223.448 257.918 222.791 259.401 222.055 260.845C221.317 262.323 220.442 263.728 219.442 265.042C219.57 263.396 219.852 261.764 220.285 260.171C220.696 258.603 221.193 257.058 221.773 255.545C222.35 254.03 223.008 252.547 223.744 251.103C224.482 249.626 225.356 248.22 226.354 246.905V246.905Z" fill="#BAD5DB"/>
<path d="M202.956 294.134C202.956 294.134 194.343 302.972 190.231 300.829C186.119 298.686 179.301 299.74 179.301 299.74L177.624 311.1L160.101 310.211L147.626 302.504L147.61 287.446C147.61 287.446 158.315 283.287 162.524 279.098C166.733 274.909 179.924 269.359 179.924 269.359L190.701 278.519C190.701 278.519 202.981 286.687 202.956 294.134Z" fill="#C0D8DD"/>
<path d="M179.301 299.74C176.631 298.642 174.023 297.428 171.425 296.194C170.134 295.562 168.833 294.95 167.554 294.295C166.272 293.646 164.983 293.011 163.714 292.338L164.718 291.205C167.016 294.419 169.235 297.687 171.412 300.985C173.562 304.301 175.687 307.635 177.624 311.1C175.046 308.081 172.656 304.932 170.292 301.765C167.953 298.58 165.657 295.365 163.44 292.095L163.434 292.086C163.337 291.943 163.29 291.77 163.302 291.597C163.314 291.423 163.384 291.259 163.5 291.129C163.616 291 163.772 290.913 163.943 290.883C164.115 290.853 164.291 290.881 164.445 290.962C165.713 291.638 166.96 292.351 168.215 293.051C169.474 293.744 170.709 294.48 171.955 295.196C174.432 296.659 176.897 298.142 179.301 299.74Z" fill="#9FC6CC"/>
<path d="M160.101 310.211C160.445 307.049 160.941 303.92 161.487 300.801C162.025 297.681 162.65 294.579 163.297 291.482L164.519 292.317L160.388 295.003C158.991 295.869 157.613 296.762 156.201 297.606C154.8 298.464 153.382 299.298 151.96 300.124C150.526 300.935 149.098 301.751 147.626 302.504C148.897 301.447 150.21 300.455 151.519 299.456C152.838 298.473 154.163 297.498 155.504 296.548C156.834 295.582 158.198 294.667 159.544 293.724L163.639 290.983C163.771 290.894 163.927 290.847 164.086 290.848C164.245 290.849 164.401 290.897 164.532 290.987C164.664 291.077 164.765 291.204 164.824 291.352C164.882 291.5 164.895 291.662 164.861 291.817C164.182 294.908 163.482 297.993 162.693 301.06C161.914 304.128 161.083 307.186 160.101 310.211Z" fill="#9FC6CC"/>
<path d="M147.61 287.446C149.028 287.617 150.427 287.865 151.827 288.106C153.223 288.364 154.616 288.633 156.002 288.93C158.777 289.512 161.532 290.173 164.276 290.877L163.292 291.524C163.518 290.229 163.717 288.931 163.965 287.64C164.21 286.349 164.444 285.056 164.722 283.77C165.256 281.195 165.84 278.627 166.574 276.084C166.476 278.729 166.228 281.35 165.931 283.964C165.793 285.272 165.612 286.573 165.441 287.877C165.272 289.18 165.056 290.476 164.867 291.776C164.836 291.983 164.725 292.169 164.558 292.294C164.39 292.419 164.18 292.472 163.974 292.442L163.895 292.426L163.882 292.423C161.136 291.726 158.401 290.985 155.687 290.166C154.328 289.762 152.976 289.331 151.627 288.888C150.283 288.428 148.937 287.975 147.61 287.446Z" fill="#9FC6CC"/>
<path d="M202.956 294.134C199.704 294.124 196.457 294.033 193.209 293.951C189.962 293.856 186.718 293.717 183.474 293.575C176.988 293.263 170.507 292.88 164.03 292.425L164.024 292.425C163.886 292.415 163.754 292.369 163.64 292.291C163.526 292.213 163.435 292.106 163.376 291.981C163.318 291.857 163.293 291.718 163.305 291.581C163.318 291.444 163.366 291.312 163.446 291.2C164.767 289.342 166.128 287.514 167.469 285.671C168.807 283.826 170.187 282.011 171.544 280.18C172.923 278.364 174.284 276.535 175.693 274.741C177.099 272.944 178.482 271.13 179.924 269.359C178.725 271.303 177.467 273.205 176.232 275.123C175 277.044 173.721 278.93 172.458 280.829C171.175 282.713 169.914 284.613 168.611 286.483C167.312 288.355 166.032 290.242 164.712 292.1L164.129 290.875C170.611 291.241 177.089 291.686 183.561 292.209C186.797 292.48 190.032 292.756 193.265 293.074C196.497 293.407 199.729 293.729 202.956 294.134Z" fill="#9FC6CC"/>
<path d="M191.794 279.293C190.072 280.684 188.515 282.268 187.153 284.014C185.828 285.652 184.972 287.619 184.675 289.705C184.564 290.723 184.648 291.752 184.922 292.739C185.187 293.758 185.597 294.735 186.138 295.638C187.297 297.521 188.671 299.263 190.231 300.829C188.217 299.708 186.463 298.171 185.088 296.321C183.598 294.388 182.882 291.969 183.08 289.537C183.411 287.148 184.505 284.929 186.198 283.211C187.769 281.528 189.676 280.193 191.794 279.293V279.293ZM177.679 292.519C177.331 290.924 177.087 289.308 176.949 287.681C176.796 286.067 176.699 284.451 176.665 282.834C176.625 281.217 176.654 279.598 176.735 277.979C176.801 276.347 176.975 274.722 177.255 273.114C177.605 274.708 177.85 276.324 177.987 277.951C178.139 279.566 178.238 281.181 178.269 282.799C178.306 284.416 178.279 286.034 178.197 287.654C178.13 289.285 177.957 290.91 177.679 292.519V292.519Z" fill="#9FC6CC"/>
</svg>
